<svg width="83" height="34" viewBox="0 0 83 34" fill="none" xmlns="http://www.w3.org/2000/svg">
<path d="M15.9572 23.9712C15.9572 23.2128 15.1689 22.6948 14.4406 22.9063C14.2144 22.9719 13.9812 23.0334 13.7409 23.0906C12.9201 23.2537 11.9843 23.3352 10.9336 23.3352C9.45612 23.3352 8.04427 23.1396 6.69808 22.7482C5.38473 22.3242 4.23555 21.6556 3.25054 20.7424C2.26553 19.8293 1.47752 18.6388 0.886511 17.1712C0.295504 15.7036 0 13.9098 0 11.7899C0 9.86571 0.295504 8.16978 0.886511 6.70216C1.47752 5.23453 2.31478 4.01151 3.39829 3.03309C4.51464 2.02206 5.82799 1.27194 7.33834 0.782734C8.88153 0.260911 10.5889 0 12.4604 0C14.2991 0 15.9736 0.244604 17.484 0.733812C19.0272 1.19041 20.2256 1.69592 21.0793 2.25036C21.7031 2.67434 22.1956 3.16355 22.5568 3.71799C22.918 4.23981 23.0985 4.90839 23.0985 5.72374V24.1669C23.0985 25.8628 22.7866 27.3305 22.1628 28.5698C21.5389 29.8091 20.6688 30.8201 19.5525 31.6029C18.469 32.4182 17.1885 33.0216 15.7109 33.413C14.2334 33.8043 12.641 34 10.9336 34C9.16062 34 7.61743 33.8532 6.30408 33.5597C5.02356 33.2662 4.00572 32.8911 3.25054 32.4345C2.13419 31.6518 1.57602 30.6082 1.57602 29.3036C1.57602 28.6187 1.72377 27.9827 2.01928 27.3957C2.4731 26.5442 3.53662 26.4938 4.42501 26.8703C4.96687 27.0999 5.54397 27.3077 6.15633 27.4935C7.37118 27.8849 8.65169 28.0806 9.99788 28.0806C11.8366 28.0806 13.2813 27.7544 14.3319 27.1022C15.4154 26.4825 15.9572 25.4388 15.9572 23.9712ZM12.2634 17.7093C13.0514 17.7093 13.7245 17.6115 14.2827 17.4158C15.3344 17.0676 15.8587 15.9748 15.8587 14.8669V8.02152C15.8587 7.1637 15.3433 6.38474 14.5289 6.11511C14.0693 5.95204 13.4783 5.87051 12.7559 5.87051C11.1799 5.87051 9.89937 6.35971 8.91436 7.33813C7.96218 8.28393 7.48609 9.78417 7.48609 11.8388C7.48609 12.9477 7.60101 13.8772 7.83085 14.6273C8.09352 15.3775 8.43827 15.9808 8.86511 16.4374C9.29195 16.894 9.78446 17.2201 10.3426 17.4158C10.9336 17.6115 11.5739 17.7093 12.2634 17.7093Z" fill="white"/>
<path d="M36.178 22.8136C36.178 23.6455 35.626 24.3692 34.799 24.4604C34.208 24.5583 33.5513 24.6072 32.829 24.6072C31.3515 24.6072 30.2844 24.3789 29.6277 23.9223C28.971 23.4331 28.6427 22.5036 28.6427 21.1338V6.21295C28.6427 5.29976 28.8725 4.51703 29.3322 3.86475C29.7919 3.21247 30.4321 2.64173 31.253 2.15252C32.3365 1.50024 33.6334 0.994724 35.1438 0.635972C36.687 0.244604 38.2958 0.0489201 39.9703 0.0489201C43.3851 0.0489201 45.0924 1.19041 45.0924 3.47338C45.0924 4.02782 45.0103 4.53333 44.8462 4.98993C44.584 5.71905 43.7955 6.0454 43.0236 5.97839C42.5707 5.93908 42.0783 5.91942 41.5464 5.91942C40.5942 5.91942 39.642 6.03357 38.6898 6.26187C37.0805 6.64773 36.178 8.22227 36.178 9.87721V22.8136Z" fill="white"/>
<path d="M56.2971 22.806C56.3222 23.6323 55.7823 24.3615 54.9606 24.4522C54.3696 24.5501 53.7129 24.599 52.9906 24.599C51.5131 24.599 50.2413 24.5581 49.5846 24.1015C48.9608 23.6123 48.8535 22.4954 48.8535 21.1256L48.9972 14.7148C49.019 13.7447 49.2414 12.6906 50.0648 12.1771C50.9858 11.436 52.3154 11.2426 53.4798 11.447C53.6801 11.4821 53.8679 11.5286 54.0249 11.586C55.4759 11.9864 56.0205 13.6797 56.0661 15.1843L56.2971 22.806ZM48.2995 3.67311C48.2995 2.56423 48.7674 2.08315 49.5677 1.33711C50.368 0.591063 51.3612 0.0489544 52.6089 0.0489544C53.8566 0.0489544 54.9319 0.554373 55.6871 1.33711C56.9543 2.59584 57.1684 4.66148 56.4934 6.31516C56.3717 6.61326 56.2099 6.87995 55.9949 7.09353C55.2397 7.87626 53.8894 8.51624 52.5473 8.51624C51.2053 8.51624 49.8185 7.64793 49.0305 6.86519C48.2754 6.08246 48.2995 4.81459 48.2995 3.67311Z" fill="white"/>
<path d="M71.9679 19.5194C72.6902 19.5194 73.3961 19.4542 74.0856 19.3237C74.16 19.307 74.2324 19.2898 74.3029 19.2724C75.2169 19.0459 75.7109 18.1658 75.7109 17.2241C75.7109 15.6163 74.3355 14.3526 72.7334 14.4884L71.6724 14.5784C70.6217 14.6763 69.768 14.9209 69.1113 15.3122C68.4875 15.671 68.1756 16.2254 68.1756 16.9755C68.1756 17.7583 68.4711 18.3779 69.0621 18.8345C69.6531 19.2911 70.6217 19.5194 71.9679 19.5194ZM71.6724 0C73.3797 0 74.9229 0.179376 76.3019 0.538129C77.7138 0.864268 78.9122 1.38609 79.8972 2.1036C80.8822 2.8211 81.6374 3.73429 82.1627 4.84317C82.7209 5.95204 83 7.2566 83 8.75683V19.8129C83 20.6609 82.7702 21.3458 82.3105 21.8676C81.8837 22.3568 81.3583 22.7808 80.7345 23.1396C79.7166 23.7592 78.4689 24.2321 76.9914 24.5583C75.5139 24.8844 73.8394 25.0475 71.9679 25.0475C68.586 25.0475 65.8936 24.4115 63.8908 23.1396C61.8879 21.835 60.8865 19.8619 60.8865 17.2201C60.8865 14.9698 61.5596 13.2576 62.9057 12.0835C64.2519 10.9094 66.3204 10.1755 69.1113 9.88201L75.1264 9.25308C75.4306 9.22128 75.6617 8.96484 75.6617 8.65899C75.6617 7.61535 75.2348 6.84892 74.3811 6.35971C73.5275 5.8705 72.2962 5.6259 70.6873 5.6259C69.4397 5.6259 68.2084 5.77266 66.9935 6.06619C66.3911 6.2158 65.8184 6.37812 65.2757 6.55315C64.3356 6.8563 63.2447 6.7789 62.758 5.91942C62.4953 5.36499 62.364 4.77794 62.364 4.15828C62.364 2.72326 63.1192 1.69592 64.6295 1.07626C65.5817 0.717506 66.6816 0.456595 67.9293 0.293526C69.2098 0.0978421 70.4575 0 71.6724 0Z" fill="white"/>
</svg>
